<?xml version="1.0" encoding="UTF-8"?>
<svg id="Layer_1" data-name="Layer 1" xmlns="http://www.w3.org/2000/svg" viewBox="0 0 600 300">
  <path d="M125.5,173.13c1.62-6.07.25-11.83,3.45-17.38.36-.63.62-1.86,1.1-2.31.2-.19,4.73-1.54,5.05-1.54.56-.01,5.43,1.53,6.12,1.88,1.8.92,4.94,5.86,5.42,7.84.41,1.67-.11,3.45.24,4.99.38,1.69,3.04,2.75,3.3,5.7.57,6.66,1.74,6.58,3.63,12.13.44,1.29.41,2.49.97,3.91,1.02,2.64,3.24,5.59,4.66,8.08,3.6-.11,5.07-3.43,6.39-6.24,3.52-7.53,4.13-13.36,6.29-20.91.89-3.11,2.56-6.22,3.37-9.54,4.66-19.2,9.43-38.35,15.14-57.4.69-2.29,1.61-4.5,2.27-6.8-2.44.3-4.95.96-7.25,1.82-4.33,1.62-4.34,2.83-9.68,2.53-3.87-.21-6.42-1.37-9.22-4.04-.55-.53-1.06-1.84-1.44-2.06-.56-.32-1.35-.02-1.69-.23-.17-.1-1.49-2.59-2.15-3.25-1.69-1.67-3.15-1.09-2.76-4.16.23-1.84,1.3-2.87,2.58-4.04.45-.41,1.28-.53,1.49-.78.3-.37.13-1.22.79-1.82,1.22-1.12,5.61-.89,7.67-1.75,3.46-1.44,4.54-1.48,8.1-2.37,13.67-3.42,27.22-6.9,41.11-9.49,6.19-1.15,10.31-1.75,16.57-1.89,4.58-.1,10.43-1.55,13.81,2.42l-2.77.92c.88,2.56.32,5.16,1.23,7.8-.61.9-1.88.75-2.63,1.24-.62.4-1.06,1.69-2.28,1.91l-.66-.71-2.29,1.24.69.52c-1.88,1.98,2.18,1.38,3.14,1.92.39.22.8,1.44,1.4,1.74l-3.14.87,2.79.35v1.04s-3.84,0-3.84,0l1.39,1.04c-2.19.17-4.65.14-6.8.35s-5.06.48-7.24.78c-3,.41-6.38,1.6-9.34,2.36.42,1.07,2.05.48,2.8,1.21,1.14,1.1-1.61,7.07-2.08,8.75-.72,2.57-.83,5.58-1.52,7.89-.7,2.32-2.95,6.07-3.34,8.56-.21,1.35.97,1.7.82,2.54l-3.35,10.78c-1.14-.39-1.11-.29-1.48.76-.21.58-.6,2.35-.61,2.93-.02.76,1.01.21.73,1.19l-1.41.59c-.1,1.29.22,2.81-.06,4.05-.24,1.04-1.69,2.38-1.94,3.64-.36,1.79.15,4.1-.66,5.94-.27.62-1.92,1.28-2.36,2.2-.66,1.36-.46,3.51-.58,5l-1.39.77c.58,1.56-.32,2.74-.35,4.16-.02,1.03.57,2.19.32,3.05s-1.88,2.7-2.31,4.34c-1.03,3.98-1.87,8.07-3.31,12.39-.42,1.27-1.7,3.14-1.93,4-.32,1.21-.06,2.49-.61,3.92-.36.93-1.59,2.06-1.77,2.78-.37,1.56-.15,4.7-.73,6.58-.3.96-1.67,2.34-2.28,3.65-.76,1.65-1.93,6.05-2.87,7.24-1.63,2.06-10.12,7.45-12.68,8.6-6.61,2.98-20.59,1.74-27.1-1.36-2.98-1.42-2.74-2.36-4.79-3.93-1.63-1.25-1.61-.86-3.11-2.46-5.46-5.84-14.29-22.95-15.02-30.86v-5.58ZM215.21,112.47c1.16-3.71,3.02-7.25,3.49-11.15l-1.92,4.18c-.11,2.01-1.34,3.71-1.76,5.56-.08.36-.5,1.46.19,1.41ZM214.86,112.82c-.91-.17-.61.17-.86.69-.68,1.45-1.07,3.34-1.58,4.88.93.18.61-.2.85-.7.71-1.43,1.34-3.29,1.59-4.88ZM209.62,126.76c-.93-.19-.6.25-.86.69-1.29,2.15-.85,4.27-1.59,6.44-.38,1.1-1.27,1.78-1.64,2.9-.47,1.43-.51,3.44-.79,4.96,3.18-2.4,2.1-6.78,4.1-10.02l.78-4.97ZM205.43,142.45c-1.14-1.08-2.47,3.82-2.63,4.51-.65,2.74-.71,5.97-1.36,8.76l-1.58.34-.71,9.4c1.34-.98,1.03-3.64,1.58-4.87.25-.56,1.32-.98,1.51-1.65.23-.83-.29-1.51-.22-2.28.04-.51.86-3.63,1.06-4.52.73-3.25,2.07-6.33,2.35-9.67Z"/>
  <path d="M279.79,248.79c-2.9-.32-7.25-1.95-8.7-4.66l2.26-2.66c2.4,1.99,4.35,3.62,7.67,3.83,5.26.34,9.47-4.4,3.89-7.38-4.06-2.17-11.41-2.6-10.68-9.15.92-8.29,14.74-9.12,19.11-3.17l-2.56,2.97c-1.5-2.5-5.76-3.91-8.57-3.33-1.91.39-4.34,2.2-3.67,4.39.98,3.22,10.1,3.44,12.36,7.9,2.61,5.14-2.13,10.57-7.27,11.27-.9.12-2.91.1-3.84,0Z"/>
  <path d="M346.37,55.37c.39.43.25,1.33.51,1.59.19.19,1.48.32,2.02.6,5.77,2.99,8.22,10.31,5.39,16.2-2.31,4.81-2.8,5.38-4.1,10.89-1.04,4.39-5.17,10.65-7.05,14.92-.82,1.86-1.03,4.22-1.86,6.16-.88,2.06-2.45,3.45-3.37,5.7-.84,2.04-1.34,4.9-2.2,6.87-.43.98-1.76,2.04-2.02,2.87-.65,2.1.33,4.01-1.9,5.78l.73.36c-.19,1.31-1.45,2.77-1.62,3.97-1.08,7.52-5.28,15.11-7.57,22.77-.33,1.1-1.88,2.84-2.19,4.09-.74,2.92-1.23,5.13-2.46,8-.8,1.86-2.71,4.57-3.34,6.43-.42,1.24.01,3.04-1.33,3.71l-.7-1.39.7,11.86-1.4.18c.42,1.9,1.91,3.33,1.75,5.4-1.66-.79-2.16,1.43-3.13-.88-1.38-.94-1.28,2.6-.36,3.32-.36.12-1.57.26-1.69.41-.83,1.03.34,5.63-1.3,7.59-3,3.57-9.38.82-13.3.51-2.8-.22-3.62,1.13-6.23-1.52-1.81-1.83-6.96-9.31-7.14-11.73-.09-1.24.68-2.63.7-3.81.04-3.09-5.52-13.03-6.69-17.37-2.01-7.46-3.63-15.12-6.14-22.46-.6-1.75-1.77-3.31-2.3-5.03-1.07-3.51-1.49-6.35-2.88-10.04-.54-1.44-1.03-.45-1.62.45-2.5,3.79-3.42,9.07-5.21,13.27s-4.25,7.47-6.2,11.24c-.47.91-.65,2.39-1.07,3.08-.17.27-.61-.16-.89.16-.7.8-1.44,3.96-2.44,4.92-.52.5-1.35.22-1.53.38-.12.11-.33,2.51-.56,3.1-1.82,4.68-3.65,9.89-4.69,14.83-.91,4.33-2.23,8.92-3.8,12.95-.45,1.16-.4,2.41-.77,3.59-.65,0-.36-1.49-.31-1.88.29-2.05,1.47-3.47,1.9-5.42.27-1.2.39-2.96.33-4.2-1.96,1.4-1.51,3.95-2.02,6-.6,2.42-1.3,6.21-2.09,8.37-.19.52-1.37,2.27-2,1.66-.15-2.34,1.59-4.34.52-6.62-1.73,1.48-1.48,3.97-2.28,5.92-1.38-.47.55-3.4-1.04-3.13-.5,1.98.28,4.49-1.58,5.92l.18-3.13h-1.39c.74,2.54-1.75,2.96-1.4,5.23-5.26.25-10.46,3.08-11.17-4.36-.27-2.82.7-9.05,1.08-12.16.37-2.97,2.23-6.22,2.94-9.26,1.2-5.12,1.57-10.26,2.98-15.5,7.74-28.85,17.2-57.54,29.23-85.16.67-1.53,2.25-3.69,2.69-4.98.41-1.21.24-2.96.7-4.18,1.22-3.24,6.33-8.03,9.07-10.12.38-.29.52-1.02.86-1.23.88-.54,7.6,1.38,8.99,1.83,13.74,4.42,14.28,19.81,16.14,32,1.86,12.18,5.1,24.2,7.23,36.36,1.41,8.02,1.37,16.49,4.46,24.13,1.74-1.6,1.26-3.5,1.65-5.33.33-1.54,1.74-4.13,2.27-6.1,3.28-12.12,6.35-24.26,10.13-36.25,4.66-14.77,10.62-29.02,14.26-44.05,1.23-5.09,4.2-5.6,6.32-9.48.42-.76.16-2.64,1.4-2.99.8-.23,2.88,1.18,3.94,1.53,1.6.53,6.08,1.42,7.25,2.7ZM313.64,144.89l2.1-7.32c-1.55.99-1.45,2.89-2.05,4.39l-.04,2.93ZM236.85,187.43c.69.1.92-.27,1.04-.88.29-1.56.57-3.13.7-4.7-1.47,1.42-1.17,3.74-1.74,5.58Z"/>
  <path d="M463.33,53.62c.28.16,2.9,4.79,3.34,5.55,3.91,6.64,6.98,10.93,5.44,19.29-.97,5.23-11.17,10.8-15.32,13.98-5.11,3.9-10.7,8.18-15.55,12.36-7.97,6.88-14.1,13.74-22.9,20.01-1.17.83-3.88,1.18-2.6,2.99,1.71-.92,3.16-3.8,5.06-3.66l-8.3,8.41c.37,1.42.59,2.96,1.15,4.32,1.59,3.86,4.68,9.7,6.71,13.5,3.65,6.83,9.85,12.85,9.09,21.27l8.72,11.17c1.27,1.53-1.84,3.7-1.9,4.43-.01.15,1.13,2.42,1.34,2.75.65.98,1.6.43,1.34,2.46-.22,1.67-1.28,1.39-2.28,2.27-1.8,1.6-2.26,4.6-5.57,4.57-1.84-.02-2.51-1.54-3.69-2.25-1.47-.88-3.23-.98-4.68-2.3-11.63-10.57-19.27-26.12-28.52-38.46-.41-.54-1.56-2.41-2.15-2.3-.98.53-1.62,1.53-2.37,2.21-.22.2-.82.12-.94.26-.22.25.13,1.23-.37,1.9-.66.88-2.58.81-3.01,1.15-.13.1-1.98,2.32-2.05,2.47-.13.28.09.79-.05,1.05-2.23,4.31-6.6,5.67-9.28,9.87-1.14,1.78-2.19,3.61-3.45,5.31l.7.33c-.33.31-.31.9-.54,1.22-1.35,1.8-2.98,2.34-4.35,3.67-.84.81-1.22,2.1-2.1,2.79-1.17.93-3.81,1.62-5.2,2.82-.66.57-.44,1.86-1.22,2.62-.41.4-3.35,1.71-2.98.51.65-2.12,4.35-5.65,5.93-7.33-1.62-.25-3.86,2.96-4.57,4.33h-1.9c-1.26,1.52-4.83,8.44-6.96,8.05v-1.74c-1.38.92-3.28,3.85-4.52,4.55-.98.55-1.78.13-2.63.51-1.62.71-3.77,3.94-5.62,4.84-.75.37-2.84.94-3.61.89-.2-.01-3.53-1.43-3.69-1.55-.36-.27-.72-2.55-.68-3.1.11-1.61,1.02-2.41,1.73-3.53.57-.91-1.18.22-.69-.69.83-1.55,2.95-3.24,3.99-4.73,5.22-7.5,10-15.48,15.56-22.81,7.58-9.98,15.89-19.59,23.73-29.29,2.97-3.68,5.49-7.72,8.68-11.23.19-.74-3.04-6.47-3.61-7.78-2.13-4.91-3.6-10.12-5.6-14.97-1.72-4.18-4.18-8.41-5.92-12.56-1.96-4.68-7.19-17.95-6.83-22.48.19-2.29,1.42-1.6,1.76-1.93.07-.07-.29-.9-.2-1.39.2-1.06.81-2.38,1.07-3.48.56-.66,3.14-.26,4.19-.35,3.78-.3,11.86-1.38,15.2-.19.81.29,1.33,1.14,2.33,1.51,1.41.53,3.39.18,4.28.95.42.36.45.9.71,1.31.17.25,1.62,2.4,1.66,2.56.14.71-.66,1.67-.09,2.92.31.67,1.72,1.39,2.07,2.12.49,1.02.3,2.72.8,3.73.38.76,1.27.82,1.67,1.82,1.04,2.57,1.63,6.84,2.51,9.69,1.59,5.12,3.51,11.9,5.65,16.68.15.33-.2.61.55.48,5.75-5.53,10.99-11.56,16.75-17.09,10.22-9.81,21.8-19.31,31.61-29.44,2.01-2.07,2.06-4.11,4.98-5.83,1.35-.79,6.98-2.65,8.2-1.95Z"/>
  <path d="M340.81,220.3c19.76-1.35,16.21,29.07-3.55,27.05-15.99-1.63-12.32-25.97,3.55-27.05ZM341.16,223.77c-11.22.42-14.13,18.68-3.22,20.11,13.38,1.75,16.98-20.63,3.22-20.11Z"/>
  <path d="M374.73,235.89l4.54,10.11-4.49-.05-3.94-9.66h-5.13s-1.79,10.05-1.79,10.05h-4.19s5.21-26,5.21-26l10.63-.45c10.59,1.16,8.81,14.96-.83,16ZM366.36,232.75h7.16c.62,0,3.09-1.09,3.63-1.6,1.58-1.49,2.07-4.76.54-6.4-2.19-2.35-6.69-.67-9.55-1.03l-1.78,9.03Z"/>
  <path d="M435.36,221.7c.21.24.43.63.29.95l-2.11,2.43c-2.74-2.43-7.56-4.5-10.97-2.25-6.6,4.36,5.13,7.12,7.55,8.46,3.35,1.85,4.62,4.38,3.5,8.16-2.1,7.09-12.06,7.29-17.47,4.05-3.18-1.9-3.39-2.73-.36-5.14,2.95,2.57,6.36,4.06,10.4,3.44,2.16-.33,4.38-2.91,3.42-5.12-1.87-4.31-13.63-2.84-12.97-11.03.67-8.3,13.99-9.23,18.71-3.95Z"/>
  <path d="M302.43,247.7c-.2.13-2.82.12-3.28.05s-.59.2-.52-.53l4.9-25.62c7.12.34,19.68-2.71,17.72,8.8-1.33,7.8-10.69,7.4-16.7,7.38l-2.12,9.91ZM305.27,234.15h7.16c.19,0,1.97-.68,2.29-.85,4.38-2.36,3.45-8.61-2.29-8.59-.8,0-5.43.48-5.6.71l-1.56,8.73Z"/>
  <path d="M390.44,222.99c0-.82.13-3.17.92-3.44l19.68-.39-.74,3.44-8.02.59-4.54,22.42-3.8-.13,4.19-22.48h-7.68Z"/>
  <path d="M462.27,201.81c15.59-2.26,16.19,20.46,2.3,20.8-12.91.32-13.69-19.15-2.3-20.8ZM462.96,203.55c-8.82,1.4-8.68,15.78-.05,16.97,12.68,1.75,12.16-18.88.05-16.97Z"/>
  <path d="M466.71,206.6c3.33.66,3.07,6.35-.52,6.28l2.79,5.23c-3.63.69-3.06-5.54-6.63-4.88v4.88h-1.75v-10.98c0-.11-.44-.27-.35-.52,1.91.26,4.68-.35,6.46,0ZM462.35,211.49c6.43.84,6.4-4.26,0-3.49v3.49Z"/>
</svg>